<svg width="103" height="102" viewBox="0 0 103 102" fill="none" xmlns="http://www.w3.org/2000/svg">
<rect x="0.5" width="102" height="102" rx="26" fill="#030202"/>
<path fill-rule="evenodd" clip-rule="evenodd" d="M46.7333 52.36C47.1124 53.1182 46.8051 54.0402 46.0469 54.4193C44.942 54.9718 44.0187 55.7912 43.3245 56.821C43.1945 57.0227 43.1945 57.2562 43.3245 57.458C44.0187 58.4878 44.942 59.3072 46.0469 59.8597C46.8051 60.2388 47.1124 61.1607 46.7333 61.9189C46.3542 62.6771 45.4323 62.9844 44.6741 62.6053C43.0805 61.8086 41.7547 60.6253 40.7713 59.1622L40.7624 59.149L40.7624 59.1489C39.9555 57.921 39.9555 56.358 40.7624 55.13L40.7712 55.1167L40.7713 55.1167C41.7547 53.6536 43.0805 52.4704 44.6741 51.6736C45.4323 51.2945 46.3542 51.6018 46.7333 52.36Z" fill="#F1D45D"/>
<path fill-rule="evenodd" clip-rule="evenodd" d="M56.6966 52.36C57.0757 51.6018 57.9976 51.2945 58.7558 51.6736C60.3493 52.4704 61.6752 53.6536 62.6586 55.1167L62.6675 55.13L62.6675 55.13C63.4744 56.358 63.4744 57.921 62.6675 59.1489L62.6587 59.1622L62.6586 59.1622C61.6752 60.6253 60.3493 61.8086 58.7558 62.6053C57.9976 62.9844 57.0757 62.6771 56.6966 61.9189C56.3175 61.1607 56.6248 60.2388 57.383 59.8597C58.4879 59.3072 59.4112 58.4878 60.1053 57.458C60.2354 57.2562 60.2354 57.0227 60.1053 56.821C59.4112 55.7912 58.4879 54.9718 57.383 54.4193C56.6248 54.0402 56.3175 53.1182 56.6966 52.36Z" fill="#F1D45D"/>
<path fill-rule="evenodd" clip-rule="evenodd" d="M33.2751 32.7751C36.0061 30.0441 40.0928 29 45.3605 29H57.6395C62.9072 29 66.9939 30.0441 69.7249 32.7751C72.4559 35.5061 73.5 39.5928 73.5 44.8605V57.1395C73.5 62.4072 72.4559 66.4939 69.7249 69.2249C66.9939 71.9559 62.9072 73 57.6395 73H45.3605C40.0928 73 36.0061 71.9559 33.2751 69.2249C30.5441 66.4939 29.5 62.4072 29.5 57.1395V44.8605C29.5 39.5928 30.5441 35.5061 33.2751 32.7751ZM35.4458 34.9458C33.5721 36.8194 32.5698 39.8956 32.5698 44.8605V57.1395C32.5698 62.1044 33.5721 65.1806 35.4458 67.0542C37.3194 68.9279 40.3956 69.9302 45.3605 69.9302H57.6395C62.6044 69.9302 65.6806 68.9279 67.5542 67.0542C69.4279 65.1806 70.4302 62.1044 70.4302 57.1395V44.8605C70.4302 39.8956 69.4279 36.8194 67.5542 34.9458C65.6806 33.0721 62.6044 32.0698 57.6395 32.0698H45.3605C40.3956 32.0698 37.3194 33.0721 35.4458 34.9458Z" fill="#F1D45D"/>
<path fill-rule="evenodd" clip-rule="evenodd" d="M72.3744 42.8131C72.3749 43.6608 71.688 44.3484 70.8403 44.3488L31.5064 44.3693C30.6587 44.3697 29.9711 43.6829 29.9707 42.8352C29.9703 41.9875 30.6571 41.3 31.5048 41.2995L70.8387 41.2791C71.6864 41.2786 72.374 41.9654 72.3744 42.8131Z" fill="#F1D45D"/>
</svg>
